<svg width="40" height="40" viewBox="0 0 40 40" fill="none" xmlns="http://www.w3.org/2000/svg">
<path d="M37.5 16.25C37.5 14.4443 37.1443 12.6563 36.4533 10.9881C35.7623 9.31988 34.7495 7.80409 33.4727 6.52728C32.1959 5.25048 30.6801 4.23766 29.0119 3.54666C27.3437 2.85565 25.5557 2.5 23.75 2.5H13.75C10.7663 2.5 7.90483 3.68526 5.79505 5.79505C3.68526 7.90483 2.5 10.7663 2.5 13.75V17.5C2.5 19.1576 3.15848 20.7473 4.33058 21.9194C5.50269 23.0915 7.0924 23.75 8.75 23.75H10.125C10.4132 25.1617 11.1802 26.4305 12.2964 27.3416C13.4125 28.2528 14.8092 28.7503 16.25 28.75H17.975L22.975 37.5L25.1375 36.25L20.1375 27.6375C19.9364 27.2322 19.629 26.889 19.2481 26.6447C18.8673 26.4003 18.4273 26.2639 17.975 26.25H16.25C15.2554 26.25 14.3016 25.8549 13.5983 25.1517C12.8951 24.4484 12.5 23.4946 12.5 22.5C12.5 21.5054 12.8951 20.5516 13.5983 19.8483C14.3016 19.1451 15.2554 18.75 16.25 18.75H17.5V16.25H16.25C14.8092 16.2497 13.4125 16.7472 12.2964 17.6584C11.1802 18.5695 10.4132 19.8383 10.125 21.25H8.75C7.75544 21.25 6.80161 20.8549 6.09835 20.1517C5.39509 19.4484 5 18.4946 5 17.5V15H7.5C8.49456 15 9.44839 14.6049 10.1517 13.9017C10.8549 13.1984 11.25 12.2446 11.25 11.25V10H8.75V11.25C8.75 11.5815 8.6183 11.8995 8.38388 12.1339C8.14946 12.3683 7.83152 12.5 7.5 12.5H5.1C5.40033 10.4193 6.43977 8.51619 8.02816 7.13898C9.61655 5.76176 11.6477 5.00246 13.75 5H21.25V7.5C21.25 7.83152 21.1183 8.14946 20.8839 8.38388C20.6495 8.6183 20.3315 8.75 20 8.75H17.5V11.25H20C20.9946 11.25 21.9484 10.8549 22.6517 10.1517C23.3549 9.44839 23.75 8.49456 23.75 7.5V5C25.8426 5.00285 27.8929 5.58928 29.6705 6.69337C31.4481 7.79747 32.8825 9.37546 33.8125 11.25H32.5C31.5054 11.25 30.5516 11.6451 29.8483 12.3483C29.1451 13.0516 28.75 14.0054 28.75 15V16.25H31.25V15C31.25 14.6685 31.3817 14.3505 31.6161 14.1161C31.8505 13.8817 32.1685 13.75 32.5 13.75H34.7125C34.9041 14.5695 35.0006 15.4084 35 16.25V17.5C35 19.1576 34.3415 20.7473 33.1694 21.9194C31.9973 23.0915 30.4076 23.75 28.75 23.75H25V26.25H28.75C30.0476 26.2482 31.3285 25.9579 32.5 25.4V26.25C32.5 27.2446 32.1049 28.1984 31.4017 28.9017C30.6984 29.6049 29.7446 30 28.75 30H27.5V32.5H28.75C30.4076 32.5 31.9973 31.8415 33.1694 30.6694C34.3415 29.4973 35 27.9076 35 26.25V23.6125C36.5998 21.9798 37.4971 19.7858 37.5 17.5V16.25Z" fill="white"/>
</svg>
