<svg width="169" height="75" viewBox="0 0 169 75" fill="none" xmlns="http://www.w3.org/2000/svg">
<path d="M10 57L14.3301 64.5L5.66987 64.5L10 57Z" fill="#9DD6CB"/>
<path d="M158 18L153.67 10.5L162.33 10.5L158 18Z" fill="#9DD6CB"/>
<path d="M32.5889 24.3105L31.7959 24.9189C31.3584 24.3493 30.832 23.9186 30.2168 23.627C29.6061 23.3307 28.9339 23.1826 28.2002 23.1826C27.3981 23.1826 26.6553 23.3763 25.9717 23.7637C25.2881 24.1465 24.7572 24.6637 24.3789 25.3154C24.0052 25.9626 23.8184 26.6917 23.8184 27.5029C23.8184 28.7288 24.2376 29.752 25.0762 30.5723C25.9193 31.3926 26.9811 31.8027 28.2617 31.8027C29.6699 31.8027 30.848 31.2513 31.7959 30.1484L32.5889 30.75C32.0876 31.388 31.4609 31.8825 30.709 32.2334C29.9616 32.5798 29.1253 32.7529 28.2002 32.7529C26.4411 32.7529 25.0534 32.1673 24.0371 30.9961C23.1849 30.0072 22.7588 28.8132 22.7588 27.4141C22.7588 25.9421 23.2738 24.7048 24.3037 23.7021C25.3382 22.695 26.6325 22.1914 28.1865 22.1914C29.1253 22.1914 29.973 22.3783 30.7295 22.752C31.486 23.1211 32.1058 23.6406 32.5889 24.3105ZM43.6043 22.1914C45.1264 22.1914 46.4002 22.6995 47.4256 23.7158C48.451 24.7321 48.9637 25.9831 48.9637 27.4688C48.9637 28.9408 48.451 30.1895 47.4256 31.2148C46.4048 32.2402 45.1583 32.7529 43.6863 32.7529C42.1961 32.7529 40.9383 32.2425 39.9129 31.2217C38.8875 30.2008 38.3748 28.9658 38.3748 27.5166C38.3748 26.5505 38.6072 25.6549 39.0721 24.8301C39.5415 24.0052 40.1795 23.3604 40.9861 22.8955C41.7928 22.4261 42.6655 22.1914 43.6043 22.1914ZM43.6521 23.1758C42.9093 23.1758 42.2052 23.3695 41.5398 23.7568C40.8745 24.1442 40.3549 24.666 39.9812 25.3223C39.6076 25.9785 39.4207 26.71 39.4207 27.5166C39.4207 28.7106 39.8331 29.7201 40.658 30.5449C41.4874 31.3652 42.4855 31.7754 43.6521 31.7754C44.4314 31.7754 45.1515 31.5863 45.8123 31.208C46.4777 30.8298 46.9949 30.3125 47.3641 29.6562C47.7378 29 47.9246 28.2708 47.9246 27.4688C47.9246 26.6712 47.7378 25.9512 47.3641 25.3086C46.9949 24.6615 46.4731 24.1442 45.7986 23.7568C45.1242 23.3695 44.4087 23.1758 43.6521 23.1758ZM54.7223 32.5L56.151 22.4443H56.315L60.4029 30.6953L64.4498 22.4443H64.6139L66.0562 32.5H65.065L64.0807 25.3086L60.526 32.5H60.273L56.6705 25.2539L55.693 32.5H54.7223ZM71.7875 32.5L73.2162 22.4443H73.3803L77.4682 30.6953L81.515 22.4443H81.6791L83.1215 32.5H82.1303L81.1459 25.3086L77.5912 32.5H77.3383L73.7357 25.2539L72.7582 32.5H71.7875ZM89.3449 22.4443H90.3498V28.5146C90.3498 29.2347 90.3635 29.6836 90.3908 29.8613C90.441 30.2578 90.5572 30.5905 90.7395 30.8594C90.9217 31.1237 91.202 31.347 91.5803 31.5293C91.9585 31.707 92.3391 31.7959 92.7219 31.7959C93.0546 31.7959 93.3736 31.7253 93.6789 31.584C93.9842 31.4427 94.2395 31.2467 94.4445 30.9961C94.6496 30.7454 94.8 30.4424 94.8957 30.0869C94.9641 29.8317 94.9982 29.3076 94.9982 28.5146V22.4443H96.0031V28.5146C96.0031 29.4124 95.9143 30.1393 95.7365 30.6953C95.5633 31.2467 95.2124 31.7275 94.6838 32.1377C94.1597 32.5479 93.524 32.7529 92.7766 32.7529C91.9654 32.7529 91.2704 32.5592 90.6916 32.1719C90.1128 31.7845 89.7255 31.2718 89.5295 30.6338C89.4064 30.2419 89.3449 29.5355 89.3449 28.5146V22.4443ZM102.691 32.5V22.4443H102.91L109.596 30.1416V22.4443H110.587V32.5H110.361L103.73 24.8984V32.5H102.691ZM117.104 22.4443H118.109V32.5H117.104V22.4443ZM123.622 23.4219V22.4443H129.138V23.4219H126.896V32.5H125.871V23.4219H123.622ZM133.988 22.4443H135.15L137.72 26.5869L140.249 22.4443H141.412L138.226 27.6943V32.5H137.235V27.6943L133.988 22.4443Z" fill="black"/>
<path d="M32.5889 24.3105L32.7715 24.5486L33.0025 24.3713L32.8322 24.1351L32.5889 24.3105ZM31.7959 24.9189L31.558 25.1017L31.7406 25.3395L31.9785 25.157L31.7959 24.9189ZM30.2168 23.627L30.0859 23.8969L30.0883 23.898L30.2168 23.627ZM25.9717 23.7637L26.1183 24.0254L26.1196 24.0247L25.9717 23.7637ZM24.3789 25.3154L24.1194 25.1648L24.1191 25.1654L24.3789 25.3154ZM25.0762 30.5723L24.8664 30.7867L24.867 30.7873L25.0762 30.5723ZM31.7959 30.1484L31.9772 29.9094L31.7524 29.7388L31.5684 29.9529L31.7959 30.1484ZM32.5889 30.75L32.8248 30.9353L33.0133 30.6954L32.7702 30.511L32.5889 30.75ZM30.709 32.2334L30.8351 32.5056L30.8358 32.5053L30.709 32.2334ZM24.0371 30.9961L23.8098 31.1919L23.8105 31.1927L24.0371 30.9961ZM24.3037 23.7021L24.513 23.9171L24.513 23.9171L24.3037 23.7021ZM30.7295 22.752L30.5966 23.0209L30.5979 23.0216L30.7295 22.752ZM32.4063 24.0725L31.6133 24.6809L31.9785 25.157L32.7715 24.5486L32.4063 24.0725ZM32.0338 24.7362C31.569 24.131 31.0059 23.669 30.3453 23.3559L30.0883 23.898C30.6582 24.1682 31.1478 24.5676 31.558 25.1017L32.0338 24.7362ZM30.3477 23.357C29.693 23.0394 28.9755 22.8826 28.2002 22.8826V23.4826C28.8923 23.4826 29.5192 23.622 30.0859 23.8969L30.3477 23.357ZM28.2002 22.8826C27.3474 22.8826 26.5534 23.0892 25.8238 23.5027L26.1196 24.0247C26.7571 23.6634 27.4488 23.4826 28.2002 23.4826V22.8826ZM25.8251 23.5019C25.0965 23.9099 24.5258 24.4647 24.1194 25.1648L24.6384 25.466C24.9885 24.8627 25.4796 24.3831 26.1183 24.0254L25.8251 23.5019ZM24.1191 25.1654C23.7168 25.862 23.5184 26.6437 23.5184 27.5029H24.1184C24.1184 26.7398 24.2936 26.0631 24.6387 25.4655L24.1191 25.1654ZM23.5184 27.5029C23.5184 28.8055 23.9673 29.9072 24.8664 30.7867L25.286 30.3578C24.508 29.5967 24.1184 28.6522 24.1184 27.5029H23.5184ZM24.867 30.7873C25.7713 31.6672 26.9106 32.1027 28.2617 32.1027V31.5027C27.0517 31.5027 26.0672 31.118 25.2854 30.3572L24.867 30.7873ZM28.2617 32.1027C29.7606 32.1027 31.0206 31.5107 32.0234 30.344L31.5684 29.9529C30.6753 30.9919 29.5793 31.5027 28.2617 31.5027V32.1027ZM31.6146 30.3874L32.4076 30.989L32.7702 30.511L31.9772 29.9094L31.6146 30.3874ZM32.353 30.5647C31.8814 31.1648 31.2925 31.6301 30.5821 31.9615L30.8358 32.5053C31.6294 32.1349 32.2937 31.6112 32.8248 30.9353L32.353 30.5647ZM30.5828 31.9612C29.8796 32.2871 29.0871 32.4529 28.2002 32.4529V33.0529C29.1635 33.0529 30.0436 32.8724 30.8351 32.5056L30.5828 31.9612ZM28.2002 32.4529C26.515 32.4529 25.215 31.8958 24.2637 30.7995L23.8105 31.1927C24.8918 32.4388 26.3672 33.0529 28.2002 33.0529V32.4529ZM24.2644 30.8003C23.4626 29.8699 23.0588 28.7468 23.0588 27.4141H22.4588C22.4588 28.8795 22.9072 30.1445 23.8099 31.1919L24.2644 30.8003ZM23.0588 27.4141C23.0588 26.0208 23.5426 24.8617 24.513 23.9171L24.0945 23.4872C23.0049 24.5478 22.4588 25.8633 22.4588 27.4141H23.0588ZM24.513 23.9171C25.4869 22.9689 26.7041 22.4914 28.1865 22.4914V21.8914C26.5609 21.8914 25.1895 22.4211 24.0944 23.4872L24.513 23.9171ZM28.1865 22.4914C29.0845 22.4914 29.8859 22.6698 30.5966 23.0209L30.8624 22.483C30.0601 22.0867 29.1662 21.8914 28.1865 21.8914V22.4914ZM30.5979 23.0216C31.3109 23.3695 31.892 23.857 32.3455 24.486L32.8322 24.1351C32.3196 23.4242 31.6611 22.8727 30.8611 22.4823L30.5979 23.0216ZM47.4256 23.7158L47.2144 23.9289L47.4256 23.7158ZM47.4256 31.2148L47.2135 31.0027L47.213 31.0032L47.4256 31.2148ZM39.0721 24.8301L38.8113 24.6817L38.8107 24.6828L39.0721 24.8301ZM40.9861 22.8955L41.1359 23.1554L41.137 23.1548L40.9861 22.8955ZM41.5398 23.7568L41.3889 23.4976L41.5398 23.7568ZM40.658 30.5449L40.4459 30.7571L40.4471 30.7582L40.658 30.5449ZM45.8123 31.208L45.664 30.9472L45.6633 30.9476L45.8123 31.208ZM47.3641 29.6562L47.1034 29.5078L47.1026 29.5092L47.3641 29.6562ZM47.3641 25.3086L47.1035 25.4572L47.1047 25.4594L47.3641 25.3086ZM45.7986 23.7568L45.6492 24.017L45.7986 23.7568ZM43.6043 22.4914C45.0521 22.4914 46.2485 22.9716 47.2144 23.9289L47.6368 23.5027C46.5519 22.4275 45.2008 21.8914 43.6043 21.8914V22.4914ZM47.2144 23.9289C48.1811 24.887 48.6637 26.0605 48.6637 27.4688H49.2637C49.2637 25.9057 48.7208 24.5772 47.6368 23.5027L47.2144 23.9289ZM48.6637 27.4688C48.6637 28.8625 48.1816 30.0345 47.2135 31.0027L47.6377 31.427C48.7203 30.3444 49.2637 29.019 49.2637 27.4688H48.6637ZM47.213 31.0032C46.2495 31.9709 45.0801 32.4529 43.6863 32.4529V33.0529C45.2366 33.0529 46.56 32.5095 47.6382 31.4265L47.213 31.0032ZM43.6863 32.4529C42.2728 32.4529 41.0919 31.9721 40.1245 31.0091L39.7012 31.4343C40.7847 32.5129 42.1194 33.0529 43.6863 33.0529V32.4529ZM40.1245 31.0091C39.1558 30.0446 38.6748 28.8862 38.6748 27.5166H38.0748C38.0748 29.0455 38.6192 30.357 39.7012 31.4343L40.1245 31.0091ZM38.6748 27.5166C38.6748 26.601 38.8945 25.7563 39.3334 24.9774L38.8107 24.6828C38.32 25.5536 38.0748 26.5 38.0748 27.5166H38.6748ZM39.3328 24.9785C39.7763 24.199 40.3765 23.5931 41.1359 23.1554L40.8363 22.6356C39.9825 23.1276 39.3066 23.8114 38.8113 24.6817L39.3328 24.9785ZM41.137 23.1548C41.8976 22.7122 42.7182 22.4914 43.6043 22.4914V21.8914C42.6128 21.8914 41.688 22.14 40.8352 22.6362L41.137 23.1548ZM43.6521 22.8758C42.8543 22.8758 42.0984 23.0845 41.3889 23.4976L41.6908 24.0161C42.3121 23.6544 42.9643 23.4758 43.6521 23.4758V22.8758ZM41.3889 23.4976C40.6788 23.911 40.121 24.4707 39.7206 25.1738L40.2419 25.4707C40.5889 24.8614 41.0702 24.3774 41.6908 24.0161L41.3889 23.4976ZM39.7206 25.1738C39.3193 25.8784 39.1207 26.6616 39.1207 27.5166H39.7207C39.7207 26.7583 39.8958 26.0786 40.2419 25.4707L39.7206 25.1738ZM39.1207 27.5166C39.1207 28.7881 39.5633 29.8745 40.4459 30.7571L40.8701 30.3328C40.103 29.5656 39.7207 28.6331 39.7207 27.5166H39.1207ZM40.4471 30.7582C41.3326 31.6341 42.4065 32.0754 43.6521 32.0754V31.4754C42.5645 31.4754 41.6422 31.0964 40.869 30.3316L40.4471 30.7582ZM43.6521 32.0754C44.4824 32.0754 45.2541 31.8732 45.9613 31.4684L45.6633 30.9476C45.0489 31.2993 44.3804 31.4754 43.6521 31.4754V32.0754ZM45.9606 31.4688C46.6725 31.0641 47.2292 30.5079 47.6255 29.8033L47.1026 29.5092C46.7606 30.1171 46.2829 30.5954 45.664 30.9472L45.9606 31.4688ZM47.6248 29.8047C48.0258 29.1004 48.2246 28.3195 48.2246 27.4688H47.6246C47.6246 28.2221 47.4497 28.8996 47.1034 29.5078L47.6248 29.8047ZM48.2246 27.4688C48.2246 26.6222 48.0257 25.8495 47.6234 25.1578L47.1047 25.4594C47.4499 26.0529 47.6246 26.7202 47.6246 27.4688H48.2246ZM47.6246 25.1599C47.2278 24.4643 46.6667 23.9094 45.948 23.4967L45.6492 24.017C46.2795 24.379 46.762 24.8586 47.1035 25.4572L47.6246 25.1599ZM45.948 23.4967C45.2294 23.084 44.4626 22.8758 43.6521 22.8758V23.4758C44.3547 23.4758 45.0189 23.655 45.6492 24.017L45.948 23.4967ZM54.7223 32.5L54.4252 32.4578L54.3766 32.8H54.7223V32.5ZM56.151 22.4443V22.1443H55.8906L55.854 22.4021L56.151 22.4443ZM56.315 22.4443L56.5839 22.3112L56.5012 22.1443H56.315V22.4443ZM60.4029 30.6953L60.1341 30.8285L60.4043 31.3738L60.6723 30.8274L60.4029 30.6953ZM64.4498 22.4443V22.1443H64.2628L64.1805 22.3122L64.4498 22.4443ZM64.6139 22.4443L64.9108 22.4017L64.8739 22.1443H64.6139V22.4443ZM66.0563 32.5V32.8H66.4024L66.3532 32.4574L66.0563 32.5ZM65.065 32.5L64.7678 32.5407L64.8033 32.8H65.065V32.5ZM64.0807 25.3086L64.3779 25.2679L64.2452 24.2987L63.8117 25.1757L64.0807 25.3086ZM60.526 32.5V32.8H60.7123L60.7949 32.6329L60.526 32.5ZM60.273 32.5L60.0044 32.6336L60.0872 32.8H60.273V32.5ZM56.6705 25.2539L56.9391 25.1204L56.5039 24.2449L56.3732 25.2138L56.6705 25.2539ZM55.693 32.5V32.8H55.9552L55.9903 32.5401L55.693 32.5ZM55.0193 32.5422L56.448 22.4865L55.854 22.4021L54.4252 32.4578L55.0193 32.5422ZM56.151 22.7443H56.315V22.1443H56.151V22.7443ZM56.0462 22.5775L60.1341 30.8285L60.6717 30.5621L56.5839 22.3112L56.0462 22.5775ZM60.6723 30.8274L64.7192 22.5764L64.1805 22.3122L60.1336 30.5632L60.6723 30.8274ZM64.4498 22.7443H64.6139V22.1443H64.4498V22.7443ZM64.3169 22.4869L65.7593 32.5426L66.3532 32.4574L64.9108 22.4017L64.3169 22.4869ZM66.0563 32.2H65.065V32.8H66.0563V32.2ZM65.3623 32.4593L64.3779 25.2679L63.7834 25.3493L64.7678 32.5407L65.3623 32.4593ZM63.8117 25.1757L60.257 32.3671L60.7949 32.6329L64.3496 25.4415L63.8117 25.1757ZM60.526 32.2H60.273V32.8H60.526V32.2ZM60.5417 32.3664L56.9391 25.1204L56.4019 25.3875L60.0044 32.6336L60.5417 32.3664ZM56.3732 25.2138L55.3957 32.4599L55.9903 32.5401L56.9678 25.294L56.3732 25.2138ZM55.693 32.2H54.7223V32.8H55.693V32.2ZM71.7875 32.5L71.4905 32.4578L71.4419 32.8H71.7875V32.5ZM73.2162 22.4443V22.1443H72.9558L72.9192 22.4021L73.2162 22.4443ZM73.3803 22.4443L73.6491 22.3112L73.5664 22.1443H73.3803V22.4443ZM77.4682 30.6953L77.1993 30.8285L77.4695 31.3738L77.7375 30.8274L77.4682 30.6953ZM81.515 22.4443V22.1443H81.328L81.2457 22.3122L81.515 22.4443ZM81.6791 22.4443L81.9761 22.4017L81.9391 22.1443H81.6791V22.4443ZM83.1215 32.5V32.8H83.4676L83.4184 32.4574L83.1215 32.5ZM82.1303 32.5L81.833 32.5407L81.8685 32.8H82.1303V32.5ZM81.1459 25.3086L81.4431 25.2679L81.3105 24.2987L80.877 25.1757L81.1459 25.3086ZM77.5912 32.5V32.8H77.7776L77.8601 32.6329L77.5912 32.5ZM77.3383 32.5L77.0696 32.6336L77.1524 32.8H77.3383V32.5ZM73.7357 25.2539L74.0044 25.1204L73.5691 24.2449L73.4384 25.2138L73.7357 25.2539ZM72.7582 32.5V32.8H73.0204L73.0555 32.5401L72.7582 32.5ZM72.0845 32.5422L73.5132 22.4865L72.9192 22.4021L71.4905 32.4578L72.0845 32.5422ZM73.2162 22.7443H73.3803V22.1443H73.2162V22.7443ZM73.1115 22.5775L77.1993 30.8285L77.737 30.5621L73.6491 22.3112L73.1115 22.5775ZM77.7375 30.8274L81.7844 22.5764L81.2457 22.3122L77.1988 30.5632L77.7375 30.8274ZM81.515 22.7443H81.6791V22.1443H81.515V22.7443ZM81.3821 22.4869L82.8245 32.5426L83.4184 32.4574L81.9761 22.4017L81.3821 22.4869ZM83.1215 32.2H82.1303V32.8H83.1215V32.2ZM82.4275 32.4593L81.4431 25.2679L80.8487 25.3493L81.833 32.5407L82.4275 32.4593ZM80.877 25.1757L77.3223 32.3671L77.8601 32.6329L81.4148 25.4415L80.877 25.1757ZM77.5912 32.2H77.3383V32.8H77.5912V32.2ZM77.6069 32.3664L74.0044 25.1204L73.4671 25.3875L77.0696 32.6336L77.6069 32.3664ZM73.4384 25.2138L72.4609 32.4599L73.0555 32.5401L74.033 25.294L73.4384 25.2138ZM72.7582 32.2H71.7875V32.8H72.7582V32.2ZM89.3449 22.4443V22.1443H89.0449V22.4443H89.3449ZM90.3498 22.4443H90.6498V22.1443H90.3498V22.4443ZM90.3908 29.8613L90.6886 29.8237L90.6873 29.8157L90.3908 29.8613ZM90.7395 30.8594L90.4911 31.0277L90.4925 31.0297L90.7395 30.8594ZM91.5803 31.5293L91.45 31.7996L91.4527 31.8008L91.5803 31.5293ZM93.6789 31.584L93.5529 31.3117L93.6789 31.584ZM94.8957 30.0869L95.1854 30.1649L95.1855 30.1645L94.8957 30.0869ZM94.9982 22.4443V22.1443H94.6982V22.4443H94.9982ZM96.0031 22.4443H96.3031V22.1443H96.0031V22.4443ZM95.7365 30.6953L95.4508 30.604L95.4503 30.6054L95.7365 30.6953ZM94.6838 32.1377L94.4999 31.9007L94.4989 31.9014L94.6838 32.1377ZM89.5295 30.6338L89.8163 30.5457L89.8157 30.5439L89.5295 30.6338ZM89.3449 22.7443H90.3498V22.1443H89.3449V22.7443ZM90.0498 22.4443V28.5146H90.6498V22.4443H90.0498ZM90.0498 28.5146C90.0498 29.2261 90.0627 29.7014 90.0943 29.9069L90.6873 29.8157C90.6643 29.6658 90.6498 29.2433 90.6498 28.5146H90.0498ZM90.0932 29.899C90.1479 30.3317 90.2769 30.7118 90.4911 31.0277L90.9878 30.691C90.8374 30.4692 90.734 30.1839 90.6885 29.8237L90.0932 29.899ZM90.4925 31.0297C90.7121 31.3481 91.0389 31.6014 91.45 31.7996L91.7105 31.259C91.3652 31.0926 91.1314 30.8993 90.9864 30.6891L90.4925 31.0297ZM91.4527 31.8008C91.8672 31.9956 92.291 32.0959 92.7219 32.0959V31.4959C92.3871 31.4959 92.0499 31.4185 91.7079 31.2578L91.4527 31.8008ZM92.7219 32.0959C93.0986 32.0959 93.4605 32.0156 93.8049 31.8563L93.5529 31.3117C93.2866 31.4349 93.0106 31.4959 92.7219 31.4959V32.0959ZM93.8049 31.8563C94.1497 31.6967 94.4418 31.4732 94.6767 31.1861L94.2123 30.8061C94.0371 31.0203 93.8187 31.1887 93.5529 31.3117L93.8049 31.8563ZM94.6767 31.1861C94.9121 30.8984 95.0802 30.5558 95.1854 30.1649L94.606 30.0089C94.5198 30.329 94.3871 30.5925 94.2123 30.8061L94.6767 31.1861ZM95.1855 30.1645C95.2658 29.8648 95.2982 29.3007 95.2982 28.5146H94.6982C94.6982 29.3145 94.6624 29.7986 94.6059 30.0093L95.1855 30.1645ZM95.2982 28.5146V22.4443H94.6982V28.5146H95.2982ZM94.9982 22.7443H96.0031V22.1443H94.9982V22.7443ZM95.7031 22.4443V28.5146H96.3031V22.4443H95.7031ZM95.7031 28.5146C95.7031 29.3962 95.6154 30.0889 95.4508 30.604L96.0223 30.7867C96.2131 30.1897 96.3031 29.4286 96.3031 28.5146H95.7031ZM95.4503 30.6054C95.2982 31.0897 94.9881 31.5219 94.4999 31.9007L94.8677 32.3747C95.4368 31.9332 95.8285 31.4038 96.0227 30.7852L95.4503 30.6054ZM94.4989 31.9014C94.0341 32.2652 93.4656 32.4529 92.7766 32.4529V33.0529C93.5823 33.0529 94.2854 32.8305 94.8687 32.3739L94.4989 31.9014ZM92.7766 32.4529C92.0147 32.4529 91.3801 32.2717 90.8585 31.9226L90.5247 32.4212C91.1606 32.8468 91.916 33.0529 92.7766 33.0529V32.4529ZM90.8585 31.9226C90.3343 31.5718 89.9911 31.1148 89.8163 30.5457L89.2427 30.7219C89.4599 31.4289 89.8913 31.9973 90.5247 32.4212L90.8585 31.9226ZM89.8157 30.5439C89.708 30.2009 89.6449 29.537 89.6449 28.5146H89.0449C89.0449 29.534 89.1049 30.2828 89.2433 30.7237L89.8157 30.5439ZM89.6449 28.5146V22.4443H89.0449V28.5146H89.6449ZM102.691 32.5H102.391V32.8H102.691V32.5ZM102.691 22.4443V22.1443H102.391V22.4443H102.691ZM102.91 22.4443L103.137 22.2476L103.047 22.1443H102.91V22.4443ZM109.596 30.1416L109.369 30.3383L109.896 30.9445V30.1416H109.596ZM109.596 22.4443V22.1443H109.296V22.4443H109.596ZM110.587 22.4443H110.887V22.1443H110.587V22.4443ZM110.587 32.5V32.8H110.887V32.5H110.587ZM110.361 32.5L110.135 32.6972L110.225 32.8H110.361V32.5ZM103.73 24.8984L103.957 24.7012L103.43 24.0981V24.8984H103.73ZM103.73 32.5V32.8H104.03V32.5H103.73ZM102.991 32.5V22.4443H102.391V32.5H102.991ZM102.691 22.7443H102.91V22.1443H102.691V22.7443ZM102.684 22.6411L109.369 30.3383L109.822 29.9449L103.137 22.2476L102.684 22.6411ZM109.896 30.1416V22.4443H109.296V30.1416H109.896ZM109.596 22.7443H110.587V22.1443H109.596V22.7443ZM110.287 22.4443V32.5H110.887V22.4443H110.287ZM110.587 32.2H110.361V32.8H110.587V32.2ZM110.587 32.3028L103.957 24.7012L103.504 25.0956L110.135 32.6972L110.587 32.3028ZM103.43 24.8984V32.5H104.03V24.8984H103.43ZM103.73 32.2H102.691V32.8H103.73V32.2ZM117.104 22.4443V22.1443H116.804V22.4443H117.104ZM118.109 22.4443H118.409V22.1443H118.109V22.4443ZM118.109 32.5V32.8H118.409V32.5H118.109ZM117.104 32.5H116.804V32.8H117.104V32.5ZM117.104 22.7443H118.109V22.1443H117.104V22.7443ZM117.809 22.4443V32.5H118.409V22.4443H117.809ZM118.109 32.2H117.104V32.8H118.109V32.2ZM117.404 32.5V22.4443H116.804V32.5H117.404ZM123.622 23.4219H123.322V23.7219H123.622V23.4219ZM123.622 22.4443V22.1443H123.322V22.4443H123.622ZM129.138 22.4443H129.438V22.1443H129.138V22.4443ZM129.138 23.4219V23.7219H129.438V23.4219H129.138ZM126.896 23.4219V23.1219H126.596V23.4219H126.896ZM126.896 32.5V32.8H127.196V32.5H126.896ZM125.871 32.5H125.571V32.8H125.871V32.5ZM125.871 23.4219H126.171V23.1219H125.871V23.4219ZM123.922 23.4219V22.4443H123.322V23.4219H123.922ZM123.622 22.7443H129.138V22.1443H123.622V22.7443ZM128.838 22.4443V23.4219H129.438V22.4443H128.838ZM129.138 23.1219H126.896V23.7219H129.138V23.1219ZM126.596 23.4219V32.5H127.196V23.4219H126.596ZM126.896 32.2H125.871V32.8H126.896V32.2ZM126.171 32.5V23.4219H125.571V32.5H126.171ZM125.871 23.1219H123.622V23.7219H125.871V23.1219ZM133.988 22.4443V22.1443H133.449L133.733 22.6021L133.988 22.4443ZM135.15 22.4443L135.405 22.2862L135.317 22.1443H135.15V22.4443ZM137.72 26.5869L137.465 26.7451L137.722 27.1592L137.976 26.7432L137.72 26.5869ZM140.249 22.4443V22.1443H140.081L139.993 22.288L140.249 22.4443ZM141.412 22.4443L141.668 22.6L141.944 22.1443H141.412V22.4443ZM138.226 27.6943L137.969 27.5387L137.926 27.6104V27.6943H138.226ZM138.226 32.5V32.8H138.526V32.5H138.226ZM137.235 32.5H136.935V32.8H137.235V32.5ZM137.235 27.6943H137.535V27.6091L137.49 27.5365L137.235 27.6943ZM133.988 22.7443H135.15V22.1443H133.988V22.7443ZM134.895 22.6025L137.465 26.7451L137.975 26.4287L135.405 22.2862L134.895 22.6025ZM137.976 26.7432L140.505 22.6007L139.993 22.288L137.464 26.4306L137.976 26.7432ZM140.249 22.7443H141.412V22.1443H140.249V22.7443ZM141.155 22.2887L137.969 27.5387L138.482 27.85L141.668 22.6L141.155 22.2887ZM137.926 27.6943V32.5H138.526V27.6943H137.926ZM138.226 32.2H137.235V32.8H138.226V32.2ZM137.535 32.5V27.6943H136.935V32.5H137.535ZM137.49 27.5365L134.243 22.2865L133.733 22.6021L136.98 27.8521L137.49 27.5365Z" fill="black"/>
<path d="M1.744 45.956H4.306V50H3.568V46.562H2.464V47.642C2.464 48.21 2.418 48.68 2.326 49.052C2.234 49.424 2.054 49.694 1.786 49.862C1.562 49.99 1.322 50.054 1.066 50.054L0.97 49.46C1.154 49.436 1.302 49.364 1.414 49.244C1.634 49.024 1.744 48.508 1.744 47.696V45.956ZM9.35242 48.854H8.06842L7.72042 50H6.95842L8.25442 45.956H9.19642L10.5104 50H9.71842L9.35242 48.854ZM8.18842 48.296H9.22642L8.90842 47.3C8.87242 47.188 8.80442 46.936 8.70442 46.544H8.69242C8.68842 46.556 8.66242 46.662 8.61442 46.862C8.56642 47.058 8.52842 47.204 8.50042 47.3L8.18842 48.296ZM13.1729 45.956H15.6689V46.562H13.9049V47.432C14.0529 47.412 14.2189 47.402 14.4029 47.402C14.8469 47.402 15.2109 47.504 15.4949 47.708C15.8229 47.928 15.9869 48.254 15.9869 48.686C15.9869 49.062 15.8649 49.362 15.6209 49.586C15.2969 49.89 14.7829 50.042 14.0789 50.042C13.7629 50.042 13.4609 50.024 13.1729 49.988V45.956ZM13.9049 47.984V49.46C14.0009 49.476 14.1309 49.484 14.2949 49.484C14.5909 49.484 14.8269 49.4 15.0029 49.232C15.1429 49.084 15.2129 48.908 15.2129 48.704C15.2129 48.468 15.1229 48.284 14.9429 48.152C14.7749 48.024 14.5509 47.96 14.2709 47.96C14.1869 47.96 14.0649 47.968 13.9049 47.984ZM20.3509 50.066H20.3449C19.7809 50.066 19.3289 49.874 18.9889 49.49C18.6489 49.102 18.4789 48.608 18.4789 48.008C18.4789 47.388 18.6569 46.88 19.0129 46.484C19.3729 46.088 19.8369 45.89 20.4049 45.89C20.9769 45.89 21.4309 46.084 21.7669 46.472C22.1069 46.856 22.2769 47.344 22.2769 47.936C22.2769 48.6 22.0969 49.122 21.7369 49.502C21.3809 49.878 20.9189 50.066 20.3509 50.066ZM20.3749 49.472H20.3809C20.7289 49.472 21.0009 49.33 21.1969 49.046C21.3969 48.762 21.4969 48.402 21.4969 47.966C21.4969 47.558 21.3989 47.21 21.2029 46.922C21.0069 46.63 20.7329 46.484 20.3809 46.484C20.0289 46.484 19.7529 46.63 19.5529 46.922C19.3569 47.21 19.2589 47.566 19.2589 47.99C19.2589 48.41 19.3589 48.762 19.5589 49.046C19.7589 49.33 20.0309 49.472 20.3749 49.472ZM25.0135 50V46.01C25.3295 45.954 25.7055 45.926 26.1415 45.926C26.6695 45.926 27.0655 46.036 27.3295 46.256C27.5935 46.472 27.7255 46.77 27.7255 47.15C27.7255 47.538 27.6115 47.842 27.3835 48.062C27.0875 48.354 26.6615 48.5 26.1055 48.5C25.9495 48.5 25.8295 48.49 25.7455 48.47V50H25.0135ZM25.7455 46.532V47.888C25.8215 47.912 25.9415 47.924 26.1055 47.924C26.3815 47.924 26.5975 47.858 26.7535 47.726C26.9135 47.594 26.9935 47.412 26.9935 47.18C26.9935 46.96 26.9195 46.792 26.7715 46.676C26.6275 46.556 26.4275 46.496 26.1715 46.496C25.9915 46.496 25.8495 46.508 25.7455 46.532ZM32.1313 48.854H30.8473L30.4993 50H29.7373L31.0333 45.956H31.9753L33.2893 50H32.4973L32.1313 48.854ZM30.9673 48.296H32.0053L31.6873 47.3C31.6513 47.188 31.5833 46.936 31.4833 46.544H31.4713C31.4673 46.556 31.4413 46.662 31.3933 46.862C31.3453 47.058 31.3073 47.204 31.2793 47.3L30.9673 48.296ZM36.3918 50V46.574H35.2398V45.956H38.2938V46.574H37.1298V50H36.3918ZM42.3271 50.066H42.3211C41.7571 50.066 41.3051 49.874 40.9651 49.49C40.6251 49.102 40.4551 48.608 40.4551 48.008C40.4551 47.388 40.6331 46.88 40.9891 46.484C41.3491 46.088 41.8131 45.89 42.3811 45.89C42.9531 45.89 43.4071 46.084 43.7431 46.472C44.0831 46.856 44.2531 47.344 44.2531 47.936C44.2531 48.6 44.0731 49.122 43.7131 49.502C43.3571 49.878 42.8951 50.066 42.3271 50.066ZM42.3511 49.472H42.3571C42.7051 49.472 42.9771 49.33 43.1731 49.046C43.3731 48.762 43.4731 48.402 43.4731 47.966C43.4731 47.558 43.3751 47.21 43.1791 46.922C42.9831 46.63 42.7091 46.484 42.3571 46.484C42.0051 46.484 41.7291 46.63 41.5291 46.922C41.3331 47.21 41.2351 47.566 41.2351 47.99C41.2351 48.41 41.3351 48.762 41.5351 49.046C41.7351 49.33 42.0071 49.472 42.3511 49.472ZM46.9897 50V46.01C47.3057 45.954 47.6817 45.926 48.1177 45.926C48.6457 45.926 49.0417 46.036 49.3057 46.256C49.5697 46.472 49.7017 46.77 49.7017 47.15C49.7017 47.538 49.5877 47.842 49.3597 48.062C49.0637 48.354 48.6377 48.5 48.0817 48.5C47.9257 48.5 47.8057 48.49 47.7217 48.47V50H46.9897ZM47.7217 46.532V47.888C47.7977 47.912 47.9177 47.924 48.0817 47.924C48.3577 47.924 48.5737 47.858 48.7297 47.726C48.8897 47.594 48.9697 47.412 48.9697 47.18C48.9697 46.96 48.8957 46.792 48.7477 46.676C48.6037 46.556 48.4037 46.496 48.1477 46.496C47.9677 46.496 47.8257 46.508 47.7217 46.532ZM52.4412 45.956H53.1792V50H52.4412V45.956ZM56.5553 50H55.7633C55.8353 49.892 55.8973 49.754 55.9493 49.586C55.9733 49.518 56.0113 49.404 56.0633 49.244C56.1153 49.084 56.1573 48.962 56.1893 48.878C56.2213 48.79 56.2673 48.69 56.3273 48.578C56.3913 48.462 56.4613 48.368 56.5373 48.296C56.6293 48.204 56.7413 48.136 56.8733 48.092V48.074C56.6213 48.03 56.4133 47.922 56.2493 47.75C56.0853 47.578 56.0033 47.356 56.0033 47.084C56.0033 46.728 56.1353 46.448 56.3993 46.244C56.6673 46.032 57.0833 45.926 57.6473 45.926C58.0353 45.926 58.3933 45.954 58.7213 46.01V50H57.9893V48.338H57.6953C57.4833 48.338 57.3173 48.396 57.1973 48.512C57.1333 48.572 57.0733 48.656 57.0173 48.764C56.9653 48.868 56.9233 48.964 56.8913 49.052C56.8633 49.14 56.8273 49.254 56.7833 49.394C56.7433 49.53 56.7133 49.626 56.6933 49.682C56.6453 49.81 56.5993 49.916 56.5553 50ZM57.9893 47.786V46.526C57.8693 46.498 57.7273 46.484 57.5633 46.484C57.3193 46.484 57.1213 46.538 56.9693 46.646C56.8173 46.75 56.7413 46.914 56.7413 47.138C56.7413 47.346 56.8213 47.508 56.9813 47.624C57.1453 47.74 57.3553 47.798 57.6113 47.798C57.8033 47.798 57.9293 47.794 57.9893 47.786ZM67.7888 49.298L67.9088 49.88C67.6608 50 67.3108 50.06 66.8588 50.06C66.2228 50.06 65.7188 49.876 65.3468 49.508C64.9788 49.14 64.7948 48.646 64.7948 48.026C64.7948 47.374 64.9968 46.856 65.4008 46.472C65.8088 46.088 66.3288 45.896 66.9608 45.896C67.3888 45.896 67.7148 45.954 67.9388 46.07L67.7828 46.658C67.5468 46.554 67.2828 46.502 66.9908 46.502C66.5668 46.502 66.2248 46.632 65.9648 46.892C65.7048 47.152 65.5748 47.518 65.5748 47.99C65.5748 48.438 65.6988 48.792 65.9468 49.052C66.1948 49.312 66.5408 49.442 66.9848 49.442C67.2928 49.442 67.5608 49.394 67.7888 49.298ZM72.1595 50.066H72.1535C71.5895 50.066 71.1375 49.874 70.7975 49.49C70.4575 49.102 70.2875 48.608 70.2875 48.008C70.2875 47.388 70.4655 46.88 70.8215 46.484C71.1815 46.088 71.6455 45.89 72.2135 45.89C72.7855 45.89 73.2395 46.084 73.5755 46.472C73.9155 46.856 74.0855 47.344 74.0855 47.936C74.0855 48.6 73.9055 49.122 73.5455 49.502C73.1895 49.878 72.7275 50.066 72.1595 50.066ZM72.1835 49.472H72.1895C72.5375 49.472 72.8095 49.33 73.0055 49.046C73.2055 48.762 73.3055 48.402 73.3055 47.966C73.3055 47.558 73.2075 47.21 73.0115 46.922C72.8155 46.63 72.5415 46.484 72.1895 46.484C71.8375 46.484 71.5615 46.63 71.3615 46.922C71.1655 47.21 71.0675 47.566 71.0675 47.99C71.0675 48.41 71.1675 48.762 71.3675 49.046C71.5675 49.33 71.8395 49.472 72.1835 49.472ZM76.8221 45.956H77.5601V49.394H79.1741V45.956H79.9121V49.412L80.2901 49.43L80.2541 51.002H79.6901L79.6481 50H76.8221V45.956ZM82.9709 45.956H83.7089V50H82.9709V45.956ZM88.747 48.854H87.463L87.115 50H86.353L87.649 45.956H88.591L89.905 50H89.113L88.747 48.854ZM87.583 48.296H88.621L88.303 47.3C88.267 47.188 88.199 46.936 88.099 46.544H88.087C88.083 46.556 88.057 46.662 88.009 46.862C87.961 47.058 87.923 47.204 87.895 47.3L87.583 48.296ZM93.026 45.956H95.588V50H94.85V46.562H93.746V47.642C93.746 48.21 93.7 48.68 93.608 49.052C93.516 49.424 93.336 49.694 93.068 49.862C92.844 49.99 92.604 50.054 92.348 50.054L92.252 49.46C92.436 49.436 92.584 49.364 92.696 49.244C92.916 49.024 93.026 48.508 93.026 47.696V45.956ZM98.5404 45.956H99.2724V47.414C99.3964 47.39 99.5624 47.378 99.7704 47.378C100.226 47.378 100.604 47.488 100.904 47.708C101.204 47.924 101.354 48.246 101.354 48.674C101.354 49.03 101.248 49.32 101.036 49.544C100.716 49.876 100.186 50.042 99.4464 50.042C99.1304 50.042 98.8284 50.024 98.5404 49.988V45.956ZM99.2724 47.978V49.46C99.3684 49.476 99.4944 49.484 99.6504 49.484C99.9184 49.484 100.14 49.418 100.316 49.286C100.492 49.154 100.58 48.96 100.58 48.704C100.58 48.448 100.494 48.26 100.322 48.14C100.15 48.016 99.9284 47.954 99.6564 47.954C99.5604 47.954 99.4324 47.962 99.2724 47.978ZM104.103 45.956H104.841V47.576H106.551V45.956H107.289V50H106.551V48.218H104.841V50H104.103V45.956ZM110.235 45.956H110.919V47.384C110.919 48.088 110.903 48.68 110.871 49.16L110.889 49.166C111.105 48.706 111.349 48.24 111.621 47.768L112.689 45.956H113.439V50H112.755V48.572C112.755 47.888 112.775 47.328 112.815 46.892H112.797C112.629 47.296 112.391 47.762 112.083 48.29L111.057 50H110.235V45.956ZM119.401 50H118.543L118.111 49.196C117.967 48.94 117.831 48.686 117.703 48.434H117.691C117.615 48.614 117.493 48.868 117.325 49.196L116.923 50H116.077L117.277 47.954L116.119 45.956H116.971L117.409 46.79C117.529 47.022 117.639 47.248 117.739 47.468H117.757C117.857 47.236 117.963 47.01 118.075 46.79L118.507 45.956H119.353L118.171 47.93L119.401 50ZM125.388 45.956H128.496V50H127.758V46.562H126.126V50H125.388V45.956ZM131.449 50V46.01C131.765 45.954 132.141 45.926 132.577 45.926C133.105 45.926 133.501 46.036 133.765 46.256C134.029 46.472 134.161 46.77 134.161 47.15C134.161 47.538 134.047 47.842 133.819 48.062C133.523 48.354 133.097 48.5 132.541 48.5C132.385 48.5 132.265 48.49 132.181 48.47V50H131.449ZM132.181 46.532V47.888C132.257 47.912 132.377 47.924 132.541 47.924C132.817 47.924 133.033 47.858 133.189 47.726C133.349 47.594 133.429 47.412 133.429 47.18C133.429 46.96 133.355 46.792 133.207 46.676C133.063 46.556 132.863 46.496 132.607 46.496C132.427 46.496 132.285 46.508 132.181 46.532ZM138.533 50.066H138.527C137.963 50.066 137.511 49.874 137.171 49.49C136.831 49.102 136.661 48.608 136.661 48.008C136.661 47.388 136.839 46.88 137.195 46.484C137.555 46.088 138.019 45.89 138.587 45.89C139.159 45.89 139.613 46.084 139.949 46.472C140.289 46.856 140.459 47.344 140.459 47.936C140.459 48.6 140.279 49.122 139.919 49.502C139.563 49.878 139.101 50.066 138.533 50.066ZM138.557 49.472H138.563C138.911 49.472 139.183 49.33 139.379 49.046C139.579 48.762 139.679 48.402 139.679 47.966C139.679 47.558 139.581 47.21 139.385 46.922C139.189 46.63 138.915 46.484 138.563 46.484C138.211 46.484 137.935 46.63 137.735 46.922C137.539 47.21 137.441 47.566 137.441 47.99C137.441 48.41 137.541 48.762 137.741 49.046C137.941 49.33 138.213 49.472 138.557 49.472ZM146.112 46.088L145.95 46.658C145.718 46.546 145.452 46.49 145.152 46.49C144.764 46.49 144.45 46.6 144.21 46.82C143.97 47.04 143.826 47.32 143.778 47.66H145.722V48.236H143.784C143.804 48.592 143.94 48.886 144.192 49.118C144.444 49.346 144.772 49.46 145.176 49.46C145.476 49.46 145.742 49.41 145.974 49.31L146.088 49.868C145.832 50 145.488 50.066 145.056 50.066C144.428 50.066 143.926 49.88 143.55 49.508C143.174 49.136 142.986 48.63 142.986 47.99C142.986 47.61 143.064 47.264 143.22 46.952C143.38 46.64 143.624 46.386 143.952 46.19C144.284 45.99 144.674 45.89 145.122 45.89C145.518 45.89 145.848 45.956 146.112 46.088ZM148.811 45.956H149.543V47.69H149.657L150.899 45.956H151.787L150.323 47.78C150.595 47.832 150.807 47.94 150.959 48.104C151.111 48.268 151.239 48.494 151.343 48.782C151.579 49.458 151.731 49.864 151.799 50H151.007C150.975 49.936 150.941 49.862 150.905 49.778C150.873 49.694 150.847 49.622 150.827 49.562C150.807 49.498 150.779 49.414 150.743 49.31C150.711 49.202 150.687 49.126 150.671 49.082C150.579 48.802 150.463 48.592 150.323 48.452C150.183 48.308 149.979 48.236 149.711 48.236H149.543V50H148.811V45.956ZM155.289 50V46.574H154.137V45.956H157.191V46.574H156.027V50H155.289ZM159.767 45.956H160.505V50H159.767V45.956ZM163.449 49.988V46.016C163.741 45.956 164.101 45.926 164.529 45.926C165.049 45.926 165.433 46.012 165.681 46.184C165.961 46.352 166.101 46.606 166.101 46.946C166.101 47.138 166.043 47.312 165.927 47.468C165.811 47.62 165.645 47.736 165.429 47.816V47.834C165.661 47.894 165.855 48.01 166.011 48.182C166.167 48.354 166.245 48.57 166.245 48.83C166.245 49.17 166.117 49.448 165.861 49.664C165.573 49.916 165.071 50.042 164.355 50.042C164.039 50.042 163.737 50.024 163.449 49.988ZM164.181 46.502V47.612H164.559C164.811 47.612 165.007 47.56 165.147 47.456C165.287 47.348 165.357 47.206 165.357 47.03C165.357 46.658 165.105 46.472 164.601 46.472C164.409 46.472 164.269 46.482 164.181 46.502ZM164.181 48.146V49.466C164.245 49.478 164.375 49.484 164.571 49.484C164.835 49.484 165.051 49.43 165.219 49.322C165.387 49.214 165.471 49.042 165.471 48.806C165.471 48.582 165.385 48.416 165.213 48.308C165.041 48.2 164.819 48.146 164.547 48.146H164.181Z" fill="black"/>
<path d="M10 59V74H158V59.4478" stroke="#9DD6CB" stroke-width="2"/>
<path d="M10 16V1H158V15.5522" stroke="#9DD6CB" stroke-width="2"/>
</svg>
