<svg width="20" height="20" viewBox="0 0 20 20" fill="none" xmlns="http://www.w3.org/2000/svg">
<path d="M10 20.0001C15.5228 20.0001 20 15.5229 20 10C20 4.47717 15.5228 0 10 0C4.47715 0 0 4.47717 0 10C0 15.5229 4.47715 20.0001 10 20.0001Z" fill="#5DE0B1"/>
<path d="M4.16185 9.91473L10.896 7.14015C11.5607 6.85113 13.8151 5.92628 13.8151 5.92628C13.8151 5.92628 14.8556 5.52165 14.7689 6.50431C14.74 6.90894 14.5087 8.32513 14.2775 9.85692L13.555 14.3945C13.555 14.3945 13.4972 15.0592 13.0058 15.1749C12.5145 15.2905 11.7053 14.7702 11.5607 14.6546C11.4451 14.5679 9.3931 13.2673 8.64165 12.6315C8.43934 12.4581 8.20812 12.1113 8.67055 11.7066C9.71102 10.7529 10.9538 9.5679 11.7053 8.81646C12.0521 8.46964 12.3989 7.66038 10.9538 8.64305L6.87863 11.3887C6.87863 11.3887 6.4162 11.6777 5.54914 11.4176C4.68208 11.1575 3.67051 10.8107 3.67051 10.8107C3.67051 10.8107 2.97687 10.3772 4.16185 9.91473Z" fill="white"/>
</svg>
